<svg width="148" height="25" xmlns="http://www.w3.org/2000/svg" xmlns:xlink="http://www.w3.org/1999/xlink" overflow="hidden"><g fill="none" fill-rule="evenodd"><path d="M37 6.299 42.227 6.299C42.973 6.299 43.661 6.454 44.289 6.765 44.918 7.076 45.412 7.5 45.773 8.035 46.134 8.57 46.315 9.155 46.315 9.789 46.315 10.461 46.15 11.043 45.82 11.535 45.49 12.026 45.058 12.403 44.523 12.664L44.523 12.814C45.22 13.062 45.773 13.457 46.184 13.999 46.594 14.54 46.8 15.19 46.8 15.949 46.8 16.684 46.604 17.334 46.212 17.9 45.8125 18.4726 45.2636 18.9247 44.625 19.207 43.96 19.512 43.222 19.664 42.413 19.664L37 19.664 37 6.299ZM42.04 11.749C42.588 11.749 43.026 11.597 43.356 11.292 43.686 10.987 43.851 10.604 43.851 10.144 43.851 9.696 43.692 9.32 43.375 9.014 43.057 8.71 42.637 8.557 42.115 8.557L39.52 8.557 39.52 11.749 42.04 11.749ZM42.32 17.368C42.93 17.368 43.406 17.209 43.748 16.892 44.09 16.575 44.261 16.161 44.261 15.651 44.261 15.141 44.087 14.724 43.739 14.4 43.39 14.076 42.892 13.915 42.245 13.915L39.52 13.915 39.52 17.368 42.32 17.368ZM55.247 19.963C53.94 19.963 52.755 19.655 51.691 19.039 50.6412 18.4374 49.7736 17.5633 49.18 16.509 48.57 15.439 48.265 14.263 48.265 12.981 48.265 11.7 48.57 10.524 49.18 9.453 49.7735 8.39923 50.6407 7.52543 51.69 6.924 52.756 6.308 53.94 6 55.248 6 56.554 6 57.74 6.308 58.804 6.924 59.8534 7.52571 60.7206 8.39987 61.314 9.454 61.924 10.524 62.229 11.7 62.229 12.981 62.229 14.263 61.924 15.439 61.314 16.509 60.7206 17.5631 59.8534 18.4373 58.804 19.039 57.74 19.655 56.554 19.963 55.248 19.963ZM55.247 17.573C56.0373 17.581 56.8158 17.3818 57.505 16.995 58.1841 16.6147 58.7435 16.0522 59.12 15.371 59.512 14.674 59.708 13.877 59.708 12.981 59.708 12.085 59.512 11.289 59.12 10.592 58.7435 9.91077 58.1841 9.34829 57.505 8.968 56.8159 8.5809 56.0373 8.38126 55.247 8.389 54.4591 8.38031 53.6829 8.58006 52.997 8.968 52.3221 9.35052 51.7666 9.91268 51.392 10.592 51 11.289 50.804 12.085 50.804 12.982 50.804 13.877 51 14.674 51.392 15.371 51.7666 16.0503 52.3221 16.6125 52.997 16.995 53.683 17.3826 54.4592 17.582 55.247 17.573ZM70.6 19.963C69.293 19.963 68.108 19.655 67.044 19.039 65.9946 18.4373 65.1274 17.5631 64.534 16.509 63.924 15.439 63.619 14.263 63.619 12.981 63.619 11.7 63.924 10.524 64.533 9.453 65.1268 8.3991 65.9944 7.52529 67.044 6.924 68.108 6.308 69.294 6 70.6 6 71.907 6 73.092 6.308 74.156 6.924 75.2054 7.52571 76.0726 8.39987 76.666 9.454 77.276 10.524 77.581 11.7 77.581 12.981 77.581 14.263 77.276 15.439 76.667 16.509 76.0734 17.5633 75.2058 18.4374 74.156 19.039 73.092 19.655 71.906 19.963 70.6 19.963ZM70.6 17.573C71.3906 17.5812 72.1695 17.3819 72.859 16.995 73.5378 16.6146 74.0968 16.0521 74.473 15.371 74.865 14.674 75.061 13.877 75.061 12.981 75.061 12.085 74.865 11.289 74.473 10.592 74.0968 9.9109 73.5378 9.34844 72.859 8.968 72.1696 8.58073 71.3907 8.38109 70.6 8.389 69.8121 8.38031 69.0359 8.58006 68.35 8.968 67.6751 9.35052 67.1196 9.91268 66.745 10.592 66.353 11.289 66.157 12.085 66.157 12.982 66.157 13.877 66.353 14.674 66.745 15.371 67.1198 16.0505 67.6758 16.6126 68.351 16.995 69.0367 17.3824 69.8125 17.5818 70.6 17.573ZM79.83 6.3 82.35 6.3 82.35 12.03 82.5 12.03 87.39 6.3 90.433 6.3 90.433 6.449 85.6 11.973 90.938 19.515 90.938 19.664 87.858 19.664 83.864 13.971 82.352 15.744 82.352 19.664 79.832 19.664 79.832 6.299ZM93.779 6 97.027 6 100.573 15.39 100.723 15.39 104.268 6 107.535 6 107.535 19.365 105.034 19.365 105.034 12.776 105.184 10.555 105.034 10.555 101.636 19.365 99.676 19.365 96.26 10.555 96.111 10.555 96.261 12.776 96.261 19.366 93.778 19.366 93.778 6ZM114.579 6 117.473 6 122.494 19.365 119.713 19.365 118.593 16.173 113.478 16.173 112.358 19.365 109.577 19.365 114.579 6ZM117.772 13.859 116.596 10.499 116.11 8.893 115.961 8.893 115.476 10.499 114.281 13.859 117.771 13.859ZM124.553 6 129.425 6C130.296 6 131.071 6.18 131.749 6.541 132.427 6.902 132.953 7.403 133.326 8.044 133.7 8.684 133.886 9.41 133.886 10.219 133.886 11.077 133.616 11.839 133.074 12.505 132.539 13.1664 131.832 13.6672 131.03 13.952L131.012 14.082 134.596 19.216 134.596 19.366 131.702 19.366 128.249 14.344 127.073 14.344 127.073 19.365 124.553 19.365 124.553 6ZM129.406 12.03C129.979 12.03 130.446 11.855 130.806 11.507 131.167 11.158 131.348 10.717 131.348 10.181 131.348 9.671 131.176 9.236 130.834 8.875 130.492 8.514 130.028 8.333 129.444 8.333L127.073 8.333 127.073 12.029 129.406 12.029ZM136.636 6 139.156 6 139.156 11.73 139.306 11.73 144.196 6 147.239 6 147.239 6.15 142.404 11.675 147.744 19.216 147.744 19.366 144.664 19.366 140.668 13.672 139.156 15.445 139.156 19.365 136.636 19.365 136.636 6Z" fill="#FFFFFF" fill-rule="nonzero"/><g><circle cx="12.5" cy="12.5" r="12.5" fill="#FFFFFF"/><path d="M9 9 9 19 12.54 15.56 16.078 19 16.078 9C16.078 7.89543 15.1826 7 14.078 7L11 7C9.89543 7 9 7.89543 9 9Z" fill="#FFFFFF"/></g></g></svg>